<?xml version="1.0" encoding="utf-8"?>
<!-- Generator: Adobe Illustrator 28.3.0, SVG Export Plug-In . SVG Version: 6.00 Build 0)  -->
<svg version="1.1" id="Layer_1" xmlns="http://www.w3.org/2000/svg" xmlns:xlink="http://www.w3.org/1999/xlink" x="0px" y="0px"
	 viewBox="0 0 4160.6 2209.7" style="enable-background:new 0 0 4160.6 2209.7;" xml:space="preserve">
<style type="text/css">
	.st0{fill:#FFFFFF;}
</style>
<g>
	<path class="st0" d="M4151.7,1143.3c-17.1-27.1-50.5-36.5-79.2-18.4c-52.3,33.1-3.2,92.9-52.1,123.8
		c-55.9,35.3-149.6,36.3-324.7-35.7c-19.5,10.5-40.4,18.3-61.9,22.6c218.1,97.8,346.8,109.9,454,42.1
		C4161.3,1231.3,4171.7,1174.9,4151.7,1143.3z"/>
	<g>
		<g>
			<path class="st0" d="M2072.6,74c-3.9-40.6-50.2-81.7-144.7-72.7c-121.9,11.6-177.9,96.6-195.9,221.1L1689,514.8l-152.4-303.7
				L1284.9,235c-137.4,13-238.9,97.1-227.7,215.9c8.4,89.3,70.2,128.9,138.2,122.5c79.7-7.5,130.6-69,124.2-136.8
				c-3.2-33.9-29.1-63.6-70.5-59.6c-32.5,3.1-58.3,30.1-54.4,69.9c1.9,20,11.8,29.5,13.2,45c1.5,15.5-9.3,27.7-27.1,29.3
				c-34.7,3.3-61.6-21.8-66.7-75.7c-7.4-78.3,53.7-148.8,175.6-160.4l50.2-4.8c33.2-3.1,55.5,3.6,51.5,32.4l-60.7,405.8
				c-16.2,104.4-60.2,143.5-100.1,147.3c-31,2.9-47-16.4-62.3-36.5c-15.3-19.5-31.2-38.8-65.3-35.6c-37.7,3.5-60.2,34-56.8,68.7
				c3.9,40.6,50.9,81.6,144.7,72.7c121.9-10.8,177.9-96.6,196.6-222l57.3-386.8l185.8,369.6c2.2-0.9,4.8-1.6,7.7-1.6
				c13.7,0,27.7,0,41.5-0.5c0.9-1,1.9-2.1,3.1-2.9c11.1-7.8,23.3-13.4,35.8-18.7c0.9-0.4,1.9-0.6,2.7-0.8L1789,217
				c14.8-103.4,60.3-142.8,100.1-146.5c31.7-3,46.2,15.7,61.4,35.2c14.6,20.2,31.3,40.3,66.1,36.9
				C2053.4,139.1,2075.8,108.6,2072.6,74z"/>
			<path class="st0" d="M1601.4,638.2l27.4,54.5c8.9,17.9,28,28.4,48,26.5c22.3-2.1,40.2-19,43.4-41.2l9.8-65.8
				C1686.4,617.3,1643.3,624.5,1601.4,638.2z"/>
			<path class="st0" d="M2210.5,469.9c11.3,120.4-70.3,216.8-195.2,228.5c-113.7,10.7-185.9-51-194.1-138.1
				c-11.3-119.6,70.5-216,195.2-227.8C2130.3,321.8,2202.4,383.5,2210.5,469.9z M2096,441.2c-4.1-42.9-24.5-69.2-71-64.8
				c-78.3,7.4-94.7,157.2-89.4,212.6c4.2,43.6,24.5,69.9,71,65.6C2085.7,647.1,2101.3,496.6,2096,441.2z"/>
			<path class="st0" d="M3063,259.6c-4.6-48.7-68.7-65-115.2-60.7c-122.6,11.6-219.1,118.3-291.5,266l-23.2,46.2l-31-139.3
				c-8.1-38.7,11.7-49.5,48.3-56.7l4.5-31.7l-192,18.1l-4.5,31.7c20.3,1.8,26,14.7,31.6,43.2l-77.4,157.8l-31.2-141.5
				c-9.4-36.3,7.3-49.1,46.1-56.5l4.5-31.7L2237,322.8l-5.2,31.7c27.7,1.1,31.3,16.4,37.9,46.3l50.9,225.9
				c33.2-3.6,66.5-3.3,100.1-3.1l85.1-175.9l36.4,161.9c0.7-0.1,1.5-0.2,2.3-0.2c30.9,0.2,61.7,2.3,92.5,2.7l66.6-137
				c55.1-111,138.3-200,199.6-205.8c68-6.5,60,51.7,114,46.6C3049.4,313.1,3065.6,287.7,3063,259.6z"/>
			<path class="st0" d="M2316.1,607.8l8.1,35.9c1.8,8,9.3,13.4,17.5,12.7l57-5.4c5.7-0.5,10.7-4.1,13.2-9.2l21.8-45
				C2394.4,599.3,2355.2,602.9,2316.1,607.8z"/>
			<path class="st0" d="M2538.1,592.1l6.9,30.7c1.8,8,9.3,13.4,17.5,12.7l57-5.4c5.7-0.5,10.6-4,13.1-9.2l15.2-31.2
				C2611.2,590.5,2574.6,591.1,2538.1,592.1z"/>
		</g>
		<g>
			<path class="st0" d="M874.9,1345.3c0.5-0.3,1-0.5,1.6-0.7c-0.1-3.4-0.2-7-0.2-10.4c0-5.3,1.8-9.4,4.5-12.5
				c-12.6-5.5-21.2-16.7-26.1-38.7l-102-432.2l-88.6,8.4l-133.7,263.7c-24.9-2.9-51-3.3-77.5-0.8
				c-115.2,10.9-187.4,74.3-179.9,153.4c3.2,33.9,29,62.9,63.7,59.5c33.2-3.1,56.4-26.2,53.2-60.2c-2-20.7-15.5-30.6-17.2-47.6
				c-2.3-24.4,22.9-49.1,78.3-54.3c17.7-1.7,35.6-1.9,53.7,0.1l-15.1,29.8c-126.9,249.7-222.8,330.2-305.5,338
				c-62.8,5.9-60.4-78.5-127.5-72.1c-36.9,3.5-59.4,33.9-56.1,68.6c3.9,40.6,50.3,82.4,144.8,73.5
				c146.9-13.8,254.3-122.4,388.8-386.9l21.2-43c84.6,20.3,156.4,70.1,167.4,116.8c5.9,25.9-2.1,37.6-26.2,45.2
				c0.6,4.6,0.6,8.6,0.1,12.9c2.2-0.2,4.5-0.4,6.7-0.4c12.9-0.3,19.1,10,18.7,20l143.7-13.6C865.8,1355.2,869.4,1348.6,874.9,1345.3
				z M580.4,1132.3l69-137l46.5,192.3C664.6,1163.9,625.4,1143.7,580.4,1132.3z"/>
			<path class="st0" d="M890.4,1324.8c-11.9-2.5-20.9-8.2-27.5-19.5c-0.4,0-0.8,0-1.2,0.1c-45.9,2.3-91.5,7.1-137.4,8
				c-0.6,18.7-14,27.1-42.6,33.2c-6.5,1.4-11.6,6.7-12.6,13.2c-1.7,10.5,7,19.7,17.5,18.7l201.5-19c7.3-0.7,13.2-6.2,14.5-13.5
				l0.4-2.9C904.3,1334.7,898.8,1326.6,890.4,1324.8z"/>
			<path class="st0" d="M1191.1,1271.3c-1.8-2.4-3-4.9-4.1-7.5c-20.1,20.8-42.5,32.7-70.1,35.3c-47.2,4.5-75.8-21.1-81-75.8
				c-7.8-82.7,14.2-189.1,75.4-194.9c25.8-2.4,36.5,15.9,39.3,46.2c2.9,30.3,25.9,45.3,53.9,42.6c29.6-2.8,49.8-24,46.7-57.3
				c-5.3-56.1-72.6-82.5-145-75.7c-125.5,11.9-197.4,118.5-186.8,230.7c8.8,93,84.5,144.8,184.9,135.3c57.8-5.4,95-29.5,126.2-69.4
				C1216.6,1286.2,1201.3,1284.9,1191.1,1271.3z"/>
			<path class="st0" d="M1246.2,1217.6c-10.3-6.2-23.5-2.8-29.9,7.4c-27.9,45.4-57.8,70.2-99.5,74.2c-47.2,4.5-75.8-21.1-81-75.8
				c-0.7-8.2-1.1-16.7-1.4-25.2c-38.6-0.4-77.1-0.2-115.7,0c0.1,5.6,0.3,11.2,0.8,16.9c8.8,93,84.5,144.8,184.9,135.3
				c72.5-6.9,112.7-42.7,149-102.9C1259.7,1237.1,1256.4,1223.7,1246.2,1217.6z"/>
			<path class="st0" d="M1585.9,1259.8c-1.4-0.1-2.8-0.4-4.2-0.4c-11.2-0.4-21-10.1-19.3-21.6c-0.3-1.9-0.3-3.7,0-5.6
				c-1.5-1.6-2.8-3.2-4.2-4.9c-20.5,21.8-43.3,34.1-71.6,36.8c-47.2,4.5-75.8-21.1-81-75.8c-7.8-82.7,14.2-189.1,75.4-194.9
				c25.8-2.4,36.5,15.9,39.3,46.2c2.8,30.3,25.9,45.3,53.9,42.6c29.6-2.8,49.8-24,46.7-57.3c-5.3-56.1-72.6-82.5-145-75.7
				c-125.5,11.9-197.4,118.5-186.8,230.7c8.8,93,84.5,144.8,184.9,135.3c49.8-4.7,84.4-23.1,113-53.7
				C1586.9,1261,1586.4,1260.5,1585.9,1259.8z"/>
			<path class="st0" d="M1616.2,1182.6c-10.3-6.2-23.5-2.8-29.9,7.4c-27.9,45.4-57.8,70.2-99.5,74.2c-47.2,4.5-75.8-21.1-81-75.8
				c-0.6-7-1-14.2-1.2-21.3c-38.1-0.7-76.2-1.8-114.4-2c-0.5,0-0.9-0.1-1.4-0.1c0.1,5,0.3,10.1,0.7,15.1
				c8.8,93,84.5,144.8,184.9,135.3c72.5-6.9,112.7-42.7,149-102.9C1629.7,1202.2,1626.4,1188.8,1616.2,1182.6z"/>
			<path class="st0" d="M1943.8,1222.9c0-0.2-0.1-0.3-0.1-0.5c-1.9-7.5,0.6-18.2,8.4-21.8c0.6-0.3,1.4-0.6,2.1-0.9
				c-5-4-8.9-9.4-12-15.4c-25,26.4-52.9,41.8-82.6,44.6c-49.4,4.7-78.8-21.6-83.9-75.6c-2-20.7-2.1-45.3,0.9-69.4l235.5-22.3
				c8.8-103.7-56.6-157.8-163-147.8c-115.2,10.9-201.8,104-189.7,231c8,84.9,82.2,145,189.3,134.9c44.5-4.3,79.4-18.9,108.5-44.4
				C1951.1,1234,1945.5,1230.1,1943.8,1222.9z M1857.8,957.9c36.9-3.5,58.4,19,53.2,65.8l-124.8,11.8
				C1798.1,994.9,1821,961.4,1857.8,957.9z"/>
			<path class="st0" d="M1996.8,1145.6c-10.3-5.7-23.2-2.6-29.8,7.3c-30.6,45.8-67.4,72.3-107.5,76.2c-46.9,4.5-75.7-19-82.8-67.4
				H1662c15.5,76.1,86.8,127.8,186.8,118.3c71.6-6.8,118-40.6,156.3-103C2011.7,1166.1,2008,1151.8,1996.8,1145.6z"/>
			<path class="st0" d="M1908.5,1304.8c32.5-3.1,66.2,14.6,69.4,48.6c2.6,28.1-17.6,50.1-42.7,52.4c-24.4,2.3-30-9.8-49.2-8
				c-14,1.4-23.2,14.2-21.3,34c3.9,40.6,38.9,64.8,88.4,60.2c52.5-5,82.9-45.1,94.6-125.9l53.7-361.9c2.2-15.8-0.6-22.3-13.9-21
				l-23.6,2.2l4.7-29.5l123.3-74.2l42.9-4.1l-4.8,28.7c24.1-20.2,52.8-33.3,86-36.4c77.5-7.3,133.8,44,141.6,126.7
				c12.3,130-63.1,231.7-181.9,242.9c-36.9,3.5-69.5-2.4-92.2-14.4l-12.5,80.9c-22.2,151.8-94.6,221.2-202.4,231.4
				c-87.8,8.3-148.6-35.1-155.7-110.4C1806.1,1356.2,1853.9,1310,1908.5,1304.8z M2190.8,1170c14.9,15.7,37,21.1,54.7,19.5
				c79-7.5,104-113.4,96.6-192.4c-5.2-55.4-33.9-67.5-63.5-64.7c-23.6,2.2-43.1,17.5-57.7,36.7L2190.8,1170z"/>
			<path class="st0" d="M2667.7,847.8l17.5-114.2l-42.9,4.1c-27.1,68.2-68.2,114.5-133.9,143.8l-4,29.5l40.6-3.9l-31.1,207.1
				c-11.4,75.6,23.6,99.8,98.9,92.7c14.8-1.4,32.1-4.9,48.1-9.2c-0.3-0.7-0.7-1.4-0.9-2.1c-4.4-2.2-8-5.8-9.3-11.1
				c-2.8-11.2-4.4-21.9-3.1-33.2c-16.4-2.9-23.6-17-19.1-47.2l31.7-207.8l79.7-7.5l7.4-48.4L2667.7,847.8z"/>
			<path class="st0" d="M2678.4,1148.5c-6.6,1.7-13.1,2.8-18.5,3.3c-19.6,1.9-30.8-5.8-32.4-26.6h-114.8
				c-6.5,66.9,28.7,88.6,100.2,81.8c23.1-2.2,52.3-9.5,73.3-17c5.5-2,9.5-6.8,10.4-12.6l1.8-10.7
				C2700.3,1155.1,2689.7,1145.7,2678.4,1148.5z"/>
			<path class="st0" d="M2895.5,768.2c43.6-4.2,65.7-38.3,62.8-69.2c-2.8-29.6-29.2-57.5-69.9-53.7c-42.9,4.1-63.4,38.8-60.5,69.8
				C2830.7,745.2,2854.9,772.1,2895.5,768.2z"/>
			<path class="st0" d="M2799.1,938.3l-27.1,179.1c-0.3,2.4-0.7,4.6-1.2,6.8c6.8,0.6,13.7,2.3,20.7,5.3c9.9,4.4,11.2,13.9,8,22.2
				c0.7,0,1.5,0,2.1,0c6.5-2.2,12.5-4.4,17.9-5.9c11.8-3.4,23.9-7.3,36.1-8.5c3.3-0.3,6.8-0.6,10.1-0.6
				c-2.8-10.6,2.7-23.3,17.4-23.6c1.4,0,2.7,0.1,4.2,0.1c0.1-2,0.3-4.2,0.6-6.6l44.4-294.7l-42.9,4.1L2766.8,890l-4.7,29.5l22.9-2.2
				C2798.5,915.9,2802,922.3,2799.1,938.3z"/>
			<path class="st0" d="M2907,1134.7c-18.7-2.5-21.5-10.1-19-28.4l7.5-49.5h-114.3l-9.2,60.6c-2.7,20.1-8.9,28.2-33.7,34.6
				c-6.3,1.7-11.1,6.8-12.2,13.2c-1.8,10.6,7.1,20,17.7,18.9l161.9-15.3c7.4-0.7,13.4-6.3,14.7-13.6l0.2-1.6
				C2922.1,1144.6,2916.1,1136,2907,1134.7z"/>
			<path class="st0" d="M3250.1,894.9l-31.8,218.3c19.7-4,39.3-6.8,59-8.9c4.1-4.7,10.3-7.5,18.1-5.7c3.2,0.7,8.9,1.8,14.9,2.4
				c7.2-0.6,14.4-1.4,21.6-2.1c3.5-1.5-0.8-1,5.2-4.9c3.2-2.1,5.8-4,8.5-5.6c-7.2-4.3-8.3-11.8-6.6-24.6l27.3-176.9
				c14.6-98.2-46.3-111.9-100.9-106.7c-37.7,3.5-82.6,24.2-114.9,45.9l5.6-35.6l-42.9,4.1l-122.6,74.2l-4.7,29.5l22.9-2.2
				c13.3-1.2,16.9,5.1,13.9,21l-27.1,179.1c-2.5,18.6-8.3,27-29,33.2c4.6,4,7.7,9.8,7.3,15.8c0.9-0.1,2,0,2.9-0.1
				c3.6-1.6,8.2-2.3,12.9-2.9c2.1-3.9,5.7-7,11.6-8.2c33.4-7.3,59.2-32.6,93.1-38.1c5.5-0.8,11-1.1,16.5-1.1c0-2.8,0.2-5.9,0.7-9.5
				l30.9-208.6c22.4-15.5,45.3-25.9,68.9-28.1C3238.8,846,3256.4,858.4,3250.1,894.9z"/>
			<path class="st0" d="M3363.7,1092.6c-23.1-1.9-27.2-9.1-24.5-28.9l1.7-10.7c-38.1,0.6-76.2,1.7-114.2,3.1l-10.3,70.3
				c-0.9,6.7,4.6,12.5,11.2,11.9l133.9-12.7c4.7-0.4,8.5-4.1,9.3-8.6l2-12.4C3373.8,1098.7,3369.6,1093.1,3363.7,1092.6z"/>
			<path class="st0" d="M3136,1114.1c-23.4-1.9-27-9.2-24.2-28.9l3.4-23.2c-38.6,2.6-77.1,5.7-115.6,9.7l-3.7,24.6
				c-2.8,21-9.5,28.9-37.4,35.5c-4.1,0.9-7.3,4.3-7.9,8.3l-1.9,11.7c-1.1,6.8,4.5,12.7,11.2,12l174.3-16.4c4.7-0.4,8.5-4.1,9.3-8.6
				l2.1-12.6C3146.4,1120,3142,1114.7,3136,1114.1z"/>
			<path class="st0" d="M3702.8,1215.6c34-33.7,60.3-80.2,69.3-142.2l51.5-346.1l-42.9,4.1l-59.8,45.2
				c-25.3-22.9-64.9-33.3-115.2-28.6c-118.8,11.2-194.2,113-181.9,242.9c7.8,82.7,64.1,134,141.6,126.7c36.9-3.5,67.3-20.5,92-43
				l-7.3,49.1c-3.7,23.4-10.1,42.7-19.1,57.7c-45.3-21.8-90.4-42.1-139.1-37.5c-59.8,5.6-99.3,36.9-94.5,87.9
				c4.1,42.9,46.1,69.4,119.9,62.4c48-4.6,99.6-18.3,143.8-46.4 M3513,1247.7c-36.2,3.4-61.6-5.3-63.1-20.8
				c-2-20.7,20.6-34,46.5-36.4c32.5-3.1,65.8,10.2,101.7,27.7C3573.1,1236.8,3541.7,1244.9,3513,1247.7z M3602.8,1055.2
				c-29.6,2.8-58.3-10.1-63.5-64.7c-7.5-79,18.3-185,96.6-192.4c20-1.9,45.2,4.7,59.1,26.4l-26.8,181.3
				C3652.7,1031.1,3630.8,1052.5,3602.8,1055.2z"/>
		</g>
		<path class="st0" d="M702.1,2079.6c36.9-3.5,48.7,19.3,57.2,38.5c6.7,15,12.3,27.9,27.8,26.4c27.4-2.6,40.4-45.6,50.2-108.3
			l65.7-440.4c4.5-31-18.4-37.8-51-34.7l-51,4.8c-121.9,11.6-183,82.1-175.6,160.4c5.1,53.9,32.1,78.9,66.7,75.7
			c18.4-1.8,29.2-13.9,27.8-29.5c-1.1-11.8-11.9-30.9-13-43.5c-4-41.3,20.4-68.3,53.6-71.4c41.3-4,67.2,25.7,70.5,59.6
			c6.5,68-43.6,129.3-123.4,136.8c-68.7,6.5-130.5-33.1-138.9-122.5c-11.2-118.8,90.3-203,227.7-215.9l471.8-44.6l35.5,131.4
			l-28,11.6c-36.5-62.9-88.5-84.7-180.8-76.1l-31.7,3c-13.3,1.2-22.1,11-23.7,24.6l-23.5,153.5l85.6-8.1c53.2-5,65.5-33,72.2-70.9
			l34.7-3.2l-26.8,181.4l-34.7,3.2c3.9-37.6-0.1-64.1-53.3-59l-85.6,8.1l-33.8,225.9c-20.5,137.6-113.4,202.9-211.7,212.2
			c-75.3,7.1-111.7-23-115.4-62.1C643.8,2108.9,666.7,2083,702.1,2079.6z"/>
		<path class="st0" d="M1310.9,1924.4c-0.8,6.2-2.1,11.2-4.1,15.4c25.6,0.5,48.8,1.5,77.8-4.1c10.9-2.1,26-5.4,41.9-7.4
			c-0.7-4-0.5-8.8,0.3-15l71.3-475.4l-42.8,4.1l-122.6,74.2l-4.7,29.5l22.9-2.2c13.3-1.2,16.1,5.2,13.9,21L1310.9,1924.4z"/>
		<path class="st0" d="M1445.9,1941.9c-18.7-2.5-21.5-10.1-19-28.4l5.4-36.4H1318l-7.1,47.4c-2.7,20.1-8.9,28.2-33.7,34.6
			c-6.3,1.7-11.1,6.8-12.2,13.2c-1.8,10.6,7,20,17.7,18.9l161.9-15.3c7.4-0.7,13.4-6.3,14.7-13.6l0.2-1.6
			C1461,1951.7,1455,1943,1445.9,1941.9z"/>
		<path class="st0" d="M1902.4,1733.7c11.3,120.4-70.3,216.8-195.2,228.5c-113.7,10.7-185.9-51-194.1-138.1
			c-11.3-119.6,70.5-216,195.2-227.8C1822,1585.6,1894.1,1647.3,1902.4,1733.7z M1787.9,1705c-4.1-42.9-24.5-69.2-71-64.8
			c-78.3,7.4-94.6,157.2-89.4,212.6c4.2,43.6,24.5,69.9,71,65.6C1777.5,1910.9,1793.1,1760.4,1787.9,1705z"/>
		<path class="st0" d="M2810.3,1410.2c-4.6-48.7-68.1-65.9-114.6-61.4c-122.6,11.6-219.1,118.3-292.1,266.7l-78.8,159.4l-31-139.3
			c-8.1-38.7,11.7-49.5,48.3-56.7l4.5-31.7l-192,18.1l-4.5,31.7c21.8,1.7,26.1,16.1,31.6,43.2l-77.4,157.9l-31.2-141.5
			c-8.5-35,5.8-49,46.1-56.5l4.5-31.7l-194.9,18.4l-5.2,31.7c27,1.1,31.3,16.4,38,47l48.8,216.3c27.4-7.7,56.4-10.9,81-13
			c10.4-0.8,20.7-1.4,31.1-1.7l75.2-155.5l34.1,151.9c34-1.9,68.1-2.5,101.5,3.4l118.5-241.3c54.9-111.8,138.3-200,199.6-205.8
			c68-6.5,60,51.7,114,46.6C2796.8,1463.6,2812.9,1437.5,2810.3,1410.2z"/>
		<path class="st0" d="M2225.6,1837l11.1,49.6c1.8,8,9.3,13.4,17.5,12.7l57-5.4c5.6-0.5,10.6-4,13.1-9.1l23.5-47.9H2225.6z"/>
		<path class="st0" d="M2000.1,1837l15.9,70.6c1.8,8,9.3,13.4,17.5,12.7l57-5.4c5.7-0.5,10.7-4,13.1-9.2l33.2-68.7H2000.1z"/>
		<path class="st0" d="M2795.3,1821.9c-9.4,1.8-19.3-2.9-22.3-13c-2.1-7.3-2.9-14.6-2.9-22c-21.2,18.3-44.3,29-68.7,31.3
			c-49.4,4.7-78.8-21.6-83.9-75.6c-2-20.7-2.1-45.3,0.9-69.4l235.5-22.3c8.8-103.7-56.6-157.8-163-147.8
			c-115.2,10.9-201.8,104-189.7,231c8,84.9,82.2,145,189.3,134.9c43.4-4.1,77.5-18.2,106.3-42.6
			C2796.4,1825.1,2795.7,1823.6,2795.3,1821.9z M2699.6,1547.3c36.9-3.5,58.4,19,53.2,65.8l-124.8,11.8
			C2639.8,1584.2,2662.8,1550.8,2699.6,1547.3z"/>
		<path class="st0" d="M2838.7,1734.9c-10.3-5.7-23.2-2.6-29.8,7.3c-30.6,45.8-67.4,72.3-107.5,76.2c-48.8,4.6-77.9-20.9-83.6-73.3
			h-115c13,79.2,85.2,133.9,187.7,124.3c71.6-6.8,118-40.6,156.3-103C2853.5,1755.4,2849.8,1741.1,2838.7,1734.9z"/>
		<path class="st0" d="M3226,1504.3c-3-31.7-25.5-49-61.7-45.6c-32.5,3.1-67,23.5-90.6,49.5l6.5-41.6l-42.9,4.1l-122.6,74.2
			l-4.7,29.5l22.9-2.2c13.3-1.2,16.1,5.2,13.9,21l-27.1,179.1c-1,7.9-2.8,13.8-5.8,18.6c40.8-5.8,80.5-18.2,121-22.8
			c0.1-2.1,0.3-4.4,0.6-6.9l28.4-188.2c13.1-19.1,28.6-28,43.4-29.5c24.4-2.3,19.1,36.9,64.2,32.7
			C3203.5,1573.4,3229.9,1545.6,3226,1504.3z"/>
		<path class="st0" d="M3060.1,1790.3c-23.5-1.9-27.1-9.1-24.4-28.9l0.3-2c-37.9,0.9-75.9-1.2-114-2.3l-2.3,15.2
			c-2.8,21-9.6,28.9-37.5,35.5c-4.1,0.9-7.2,4.2-7.8,8.2l-2,12.1c-1,6.6,4.4,12.3,10.9,11.7l174.8-16.5c4.6-0.4,8.3-3.9,9.1-8.4
			l2.1-12.8C3070.4,1796.1,3066,1790.8,3060.1,1790.3z"/>
		<path class="st0" d="M3782,1846.5c4.8,51-54.5,93-141.6,101.3c-73.1,6.9-128.5-19.9-175.6-51.9c-31.1,25.3-72.5,44.1-123.5,48.9
			c-82,7.7-150.1-19.4-156.4-85.8c-5.3-56.1,38.8-101.3,103.9-107.4c55.4-5.2,97.8,25.8,142.2,61.1c1.6-7.6,1.5-15.8,0.8-23.2
			c-5.8-61.3-51.5-87.5-96.4-113c-42.6-25.1-85.2-50.8-90.5-106.1c-6.9-73.1,50.2-123.9,138.7-132.3c49.4-4.7,82.6,7.1,104.1,20.7
			l9.3-20.3l27.4-2.6l18.7,119.7l-27.3,10.8c-28.5-65.1-75.8-91.9-113.4-88.4c-31,2.9-56.2,20.2-53.5,49
			c2.7,28.8,32.7,46.1,67.2,65.1c49.5,28.1,110.3,63.3,118.4,149c3.7,39.9-9.2,84.3-37.7,121.2c39.6,25.3,83.9,43.5,141.4,38
			c61.3-5.8,36.1-83.1,98.1-89C3758.4,1809.3,3779.7,1821.4,3782,1846.5z M3413.5,1856.8c-41.1-33.4-78.9-62.5-121-58.6
			c-36.2,3.4-57.9,26.3-55.1,55.9c3.5,36.9,46,53,92.5,48.6C3369.1,1899,3397.2,1880.7,3413.5,1856.8z"/>
	</g>
</g>
</svg>
